<svg width="56" height="56" viewBox="0 0 56 56" fill="none" xmlns="http://www.w3.org/2000/svg">
<rect width="56" height="56" rx="28" fill="#101010"/>
<path d="M27.6797 32.9298L31.7497 36.9998L33.5397 35.2098C33.6439 35.106 33.7239 34.9805 33.774 34.8422C33.8242 34.7039 33.8432 34.5563 33.8297 34.4098L33.1797 27.2998" stroke="white" stroke-width="2" stroke-linecap="round" stroke-linejoin="round"/>
<path d="M25.3699 20.71L23.9999 22.13M25.3699 33.46C25.4629 33.5537 25.5735 33.6281 25.6954 33.6789C25.8172 33.7297 25.9479 33.7558 26.0799 33.7558C26.212 33.7558 26.3427 33.7297 26.4645 33.6789C26.5864 33.6281 26.697 33.5537 26.7899 33.46L34.6999 25.55C36.1713 24.0775 36.9984 22.0816 36.9999 20C36.9999 19.7348 36.8946 19.4804 36.707 19.2929C36.5195 19.1054 36.2652 19 35.9999 19C33.9184 19.0015 31.9224 19.8287 30.4499 21.3L22.5399 29.21C22.4462 29.303 22.3718 29.4136 22.321 29.5354C22.2703 29.6573 22.2441 29.788 22.2441 29.92C22.2441 30.052 22.2703 30.1827 22.321 30.3046C22.3718 30.4264 22.4462 30.537 22.5399 30.63L25.3699 33.46ZM33.8699 32L35.2899 30.59L33.8699 32Z" stroke="white" stroke-width="2" stroke-linecap="round" stroke-linejoin="round"/>
<path d="M28.75 22.8202L21.59 22.1702C21.4435 22.1567 21.2959 22.1758 21.1576 22.2259C21.0193 22.276 20.8938 22.356 20.79 22.4602L19 24.2502L23.09 28.3402" stroke="white" stroke-width="2" stroke-linecap="round" stroke-linejoin="round"/>
</svg>
